<svg xmlns="http://www.w3.org/2000/svg" viewBox="0 0 400 240" fill="none">
  <defs>
    <linearGradient id="bgGradient" x1="0%" y1="0%" x2="100%" y2="100%">
      <stop offset="0%" style="stop-color:#1e3a8a;stop-opacity:1" />
      <stop offset="100%" style="stop-color:#3b82f6;stop-opacity:1" />
    </linearGradient>
    <linearGradient id="screenGradient" x1="0%" y1="0%" x2="100%" y2="100%">
      <stop offset="0%" style="stop-color:#1f2937;stop-opacity:1" />
      <stop offset="100%" style="stop-color:#374151;stop-opacity:1" />
    </linearGradient>
  </defs>
  
  <!-- Background -->
  <rect width="400" height="240" fill="url(#bgGradient)"/>
  
  <!-- Laptop Base -->
  <rect x="80" y="140" width="240" height="80" rx="8" fill="#6b7280"/>
  <rect x="85" y="145" width="230" height="70" rx="6" fill="#4b5563"/>
  
  <!-- Laptop Screen -->
  <rect x="100" y="60" width="200" height="120" rx="8" fill="#1f2937"/>
  <rect x="105" y="65" width="190" height="110" rx="6" fill="url(#screenGradient)"/>
  
  <!-- Code Lines -->
  <rect x="115" y="80" width="60" height="3" fill="#10b981"/>
  <rect x="180" y="80" width="40" height="3" fill="#f59e0b"/>
  <rect x="225" y="80" width="50" height="3" fill="#ef4444"/>
  
  <rect x="115" y="90" width="80" height="3" fill="#8b5cf6"/>
  <rect x="200" y="90" width="30" height="3" fill="#06b6d4"/>
  
  <rect x="125" y="100" width="70" height="3" fill="#10b981"/>
  <rect x="200" y="100" width="45" height="3" fill="#f59e0b"/>
  
  <rect x="125" y="110" width="55" height="3" fill="#ef4444"/>
  <rect x="185" y="110" width="35" height="3" fill="#8b5cf6"/>
  
  <rect x="115" y="120" width="90" height="3" fill="#06b6d4"/>
  
  <rect x="125" y="130" width="65" height="3" fill="#10b981"/>
  <rect x="195" y="130" width="40" height="3" fill="#f59e0b"/>
  
  <rect x="115" y="140" width="75" height="3" fill="#8b5cf6"/>
  
  <!-- Cursor -->
  <rect x="195" y="138" width="2" height="8" fill="#ffffff">
    <animate attributeName="opacity" values="1;0;1" dur="1s" repeatCount="indefinite"/>
  </rect>
  
  <!-- Floating Elements -->
  <circle cx="50" cy="50" r="8" fill="#10b981" opacity="0.7">
    <animate attributeName="cy" values="50;40;50" dur="3s" repeatCount="indefinite"/>
  </circle>
  
  <rect x="340" y="70" width="12" height="12" fill="#f59e0b" opacity="0.7" transform="rotate(45 346 76)">
    <animate attributeName="y" values="70;60;70" dur="2.5s" repeatCount="indefinite"/>
  </rect>
  
  <circle cx="360" cy="180" r="6" fill="#ef4444" opacity="0.7">
    <animate attributeName="cy" values="180;170;180" dur="2s" repeatCount="indefinite"/>
  </circle>
  
  <!-- Gears -->
  <g transform="translate(320, 120)">
    <circle cx="0" cy="0" r="15" fill="none" stroke="#8b5cf6" stroke-width="2" opacity="0.6"/>
    <circle cx="0" cy="0" r="8" fill="#8b5cf6" opacity="0.3"/>
    <rect x="-2" y="-12" width="4" height="6" fill="#8b5cf6" opacity="0.6"/>
    <rect x="-2" y="6" width="4" height="6" fill="#8b5cf6" opacity="0.6"/>
    <rect x="-12" y="-2" width="6" height="4" fill="#8b5cf6" opacity="0.6"/>
    <rect x="6" y="-2" width="6" height="4" fill="#8b5cf6" opacity="0.6"/>
    <animateTransform attributeName="transform" type="rotate" values="0;360" dur="8s" repeatCount="indefinite"/>
  </g>
  
  <!-- Title -->
  <text x="200" y="30" text-anchor="middle" fill="#ffffff" font-family="Arial, sans-serif" font-size="18" font-weight="bold">Custom Web Development</text>
</svg>